<svg width="68" height="68" viewBox="0 0 68 68" fill="none" xmlns="http://www.w3.org/2000/svg">
<path d="M57.1535 67.7939H11.3016C5.36784 67.7939 0.512939 62.939 0.512939 57.0053V11.1534C0.512939 5.21965 5.36784 0.364746 11.3016 0.364746H57.1535C63.0872 0.364746 67.9421 5.21965 67.9421 11.1534V57.0053C67.9421 62.939 63.0872 67.7939 57.1535 67.7939Z" fill="#E3F2FF"/>
<path d="M38.8941 10.7461H20.2275C18.9898 10.7461 17.8028 11.2378 16.9276 12.1129C16.0525 12.9881 15.5608 14.1751 15.5608 15.4128V52.7461C15.5608 53.9838 16.0525 55.1708 16.9276 56.046C17.8028 56.9211 18.9898 57.4128 20.2275 57.4128H48.2275C49.4652 57.4128 50.6521 56.9211 51.5273 56.046C52.4025 55.1708 52.8941 53.9838 52.8941 52.7461V24.7461L38.8941 10.7461Z" stroke="#FF6010" stroke-width="4" stroke-linecap="round" stroke-linejoin="round"/>
<path d="M43.561 45.7461H24.8943" stroke="#FF6010" stroke-width="4" stroke-linecap="round" stroke-linejoin="round"/>
<path d="M43.561 36.4131H24.8943" stroke="#FF6010" stroke-width="4" stroke-linecap="round" stroke-linejoin="round"/>
<path d="M29.561 27.0796H27.2276H24.8943" stroke="#FF6010" stroke-width="4" stroke-linecap="round" stroke-linejoin="round"/>
<path d="M38.8943 10.7461V24.7461H52.8943" stroke="#FF6010" stroke-width="4" stroke-linecap="round" stroke-linejoin="round"/>
</svg>
