<svg width="215" height="215" viewBox="0 0 215 215" fill="none" xmlns="http://www.w3.org/2000/svg">
<path d="M116.458 170.208C116.458 176.479 117.623 182.481 119.594 188.125H44.7917C40.0399 188.125 35.4827 186.237 32.1227 182.877C28.7626 179.517 26.875 174.96 26.875 170.208V44.7917C26.875 34.9375 34.9375 26.875 44.7917 26.875H170.208C174.96 26.875 179.517 28.7626 182.877 32.1227C186.237 35.4827 188.125 40.0399 188.125 44.7917V119.594C182.481 117.623 176.479 116.458 170.208 116.458V44.7917H44.7917V170.208H116.458ZM125.058 110.098L100.423 141.81L82.8646 120.669L58.2292 152.292H119.594C123.177 142.258 129.627 133.569 137.958 127.298L125.058 110.098ZM179.167 161.25V134.375H161.25V161.25H134.375V179.167H161.25V206.042H179.167V179.167H206.042V161.25H179.167Z" fill="#BDBDBD"/>
</svg>
