<svg width="15" height="15" viewBox="0 0 19 21" fill="none" xmlns="http://www.w3.org/2000/svg">
<path d="M16.4079 8.67161H17.4319C17.7035 8.67161 17.964 8.7795 18.156 8.97154C18.348 9.16357 18.4559 9.42403 18.4559 9.69561V19.9356C18.4559 20.2072 18.348 20.4677 18.156 20.6597C17.964 20.8517 17.7035 20.9596 17.4319 20.9596H1.04793C0.776344 20.9596 0.515886 20.8517 0.323848 20.6597C0.131811 20.4677 0.0239258 20.2072 0.0239258 19.9356V9.69561C0.0239258 9.42403 0.131811 9.16357 0.323848 8.97154C0.515886 8.7795 0.776344 8.67161 1.04793 8.67161H2.07193V7.64761C2.07193 6.7063 2.25733 5.7742 2.61756 4.90454C2.97778 4.03488 3.50577 3.24468 4.17138 2.57907C4.83699 1.91346 5.62719 1.38547 6.49685 1.02525C7.36651 0.66502 8.29861 0.479614 9.23993 0.479614C10.1812 0.479614 11.1133 0.66502 11.983 1.02525C12.8527 1.38547 13.6429 1.91346 14.3085 2.57907C14.9741 3.24468 15.5021 4.03488 15.8623 4.90454C16.2225 5.7742 16.4079 6.7063 16.4079 7.64761V8.67161ZM2.07193 10.7196V18.9116H16.4079V10.7196H2.07193ZM8.21593 12.7676H10.2639V16.8636H8.21593V12.7676ZM14.3599 8.67161V7.64761C14.3599 6.28971 13.8205 4.98741 12.8603 4.02723C11.9001 3.06704 10.5978 2.52761 9.23993 2.52761C7.88202 2.52761 6.57972 3.06704 5.61954 4.02723C4.65935 4.98741 4.11993 6.28971 4.11993 7.64761V8.67161H14.3599Z" fill="white"/>
</svg>
