<svg id="visual" viewBox="0 0 2100 420" width="2100" height="420" xmlns="http://www.w3.org/2000/svg" xmlns:xlink="http://www.w3.org/1999/xlink" version="1.1"><rect x="0" y="0" width="2100" height="420" fill="#fff"></rect><path d="M0 294L50 299.7C100 305.3 200 316.7 300 296.3C400 276 500 224 600 208.8C700 193.7 800 215.3 900 197.5C1000 179.7 1100 122.3 1200 97.7C1300 73 1400 81 1500 123.5C1600 166 1700 243 1800 255.7C1900 268.3 2000 216.7 2050 190.8L2100 165L2100 0L2050 0C2000 0 1900 0 1800 0C1700 0 1600 0 1500 0C1400 0 1300 0 1200 0C1100 0 1000 0 900 0C800 0 700 0 600 0C500 0 400 0 300 0C200 0 100 0 50 0L0 0Z" fill="#d46132" stroke-linecap="round" stroke-linejoin="miter"></path></svg>