<svg id="visual" viewBox="0 0 960 540" width="960" height="540" xmlns="http://www.w3.org/2000/svg" xmlns:xlink="http://www.w3.org/1999/xlink" version="1.1"><rect x="0" y="0" width="960" height="540" fill="#fff"></rect><path d="M0 249L26.7 226.8C53.3 204.7 106.7 160.3 160 140C213.3 119.7 266.7 123.3 320 137.2C373.3 151 426.7 175 480 192.3C533.3 209.7 586.7 220.3 640 208.3C693.3 196.3 746.7 161.7 800 150.7C853.3 139.7 906.7 152.3 933.3 158.7L960 165L960 0L933.3 0C906.7 0 853.3 0 800 0C746.7 0 693.3 0 640 0C586.7 0 533.3 0 480 0C426.7 0 373.3 0 320 0C266.7 0 213.3 0 160 0C106.7 0 53.3 0 26.7 0L0 0Z" fill="#d46132" stroke-linecap="round" stroke-linejoin="miter"></path></svg>